<?xml version="1.0" encoding="iso-8859-1"?>
<!-- Generator: Adobe Illustrator 19.0.0, SVG Export Plug-In . SVG Version: 6.00 Build 0)  -->
<svg version="1.1" id="Layer_1" xmlns="http://www.w3.org/2000/svg" xmlns:xlink="http://www.w3.org/1999/xlink" x="0px" y="0px"
	 viewBox="0 0 425.982 425.982" style="enable-background:new 0 0 425.982 425.982;" xml:space="preserve">
<g>
	<polygon style="fill:#CCCCCC;" points="146.61,57.326 131.67,86.676 34.31,86.676 19.37,57.326 	"/>
	<polygon style="fill:#CCCCCC;" points="406.61,57.326 391.67,86.676 294.31,86.676 279.37,57.326 	"/>
	<polygon style="fill:#E6E6E6;" points="146.61,57.326 131.67,86.676 59.31,86.676 44.37,57.326 	"/>
	<polygon style="fill:#E6E6E6;" points="406.61,57.326 391.67,86.676 319.31,86.676 304.37,57.326 	"/>
	<polyline style="fill:#F24125;" points="254.03,149.666 297.99,193.626 341.95,149.666 254.03,149.666 	"/>
	<polyline style="fill:#9E3B2B;" points="341.95,149.666 254.03,149.666 297.99,193.626 341.95,149.666 	"/>
	<polygon style="fill:#F24125;" points="52.61,86.676 115.6,149.666 139.56,173.626 163.52,149.666 226.52,86.676 131.67,86.676 	
		"/>
	<polyline style="fill:#F7B239;" points="354.74,149.666 354.74,368.656 387.73,368.656 399.54,176.666 401.2,149.666 
		354.74,149.666 	"/>
	<polyline style="fill:#F7B239;" points="24.78,149.666 26.44,176.666 38.25,368.656 71.25,368.656 71.25,149.666 24.78,149.666 	
		"/>
	<polyline style="fill:#F7B239;" points="6,86.676 6,149.666 24.78,149.666 71.25,149.666 115.6,149.666 52.61,86.676 34.31,86.676 
		6,86.676 	"/>
	<polyline style="fill:#F7B239;" points="163.52,149.666 294.03,149.666 341.95,149.666 354.74,149.666 401.2,149.666 
		419.98,149.666 419.98,86.676 391.67,86.676 294.31,86.676 226.52,86.676 163.52,149.666 	"/>
	<polyline style="fill:#A17A36;" points="71.25,149.666 24.78,149.666 26.44,176.666 71.25,176.666 71.25,149.666 	"/>
	<polyline style="fill:#A17A36;" points="401.2,149.666 354.74,149.666 354.74,176.666 399.54,176.666 401.2,149.666 	"/>
	<rect x="226.52" y="80.676" width="67.79" height="12"/>
	<path style="fill:#FFFFFF;" d="M390.643,110.68c-0.39,0-0.78-0.04-1.17-0.12c-0.38-0.08-0.76-0.19-1.12-0.34
		c-0.36-0.15-0.71-0.34-1.04-0.55c-0.33-0.22-0.63-0.47-0.91-0.75s-0.53-0.59-0.74-0.91c-0.22-0.33-0.41-0.68-0.56-1.04
		s-0.26-0.74-0.34-1.12c-0.08-0.39-0.12-0.78-0.12-1.17c0-0.4,0.04-0.79,0.12-1.18c0.08-0.38,0.19-0.76,0.34-1.12
		s0.34-0.71,0.56-1.03c0.21-0.33,0.46-0.64,0.74-0.92c0.28-0.27,0.58-0.52,0.91-0.74s0.68-0.4,1.04-0.55
		c0.36-0.15,0.74-0.27,1.12-0.35c0.78-0.15,1.57-0.15,2.35,0c0.38,0.08,0.76,0.2,1.12,0.35c0.36,0.15,0.71,0.33,1.03,0.55
		c0.33,0.22,0.64,0.47,0.92,0.74c1.11,1.12,1.75,2.67,1.75,4.25c0,0.39-0.04,0.78-0.11,1.17c-0.08,0.38-0.2,0.76-0.35,1.12
		s-0.33,0.71-0.55,1.04c-0.22,0.32-0.47,0.63-0.74,0.91c-0.28,0.28-0.59,0.53-0.92,0.75c-0.32,0.21-0.67,0.4-1.03,0.55
		c-0.36,0.15-0.74,0.26-1.12,0.34C391.433,110.64,391.033,110.68,390.643,110.68z"/>
	<path style="fill:#FFFFFF;" d="M370.037,110.676H237.151c-3.313,0-6-2.686-6-6c0-3.314,2.687-6,6-6h132.885c3.314,0,6,2.686,6,6
		C376.036,107.99,373.351,110.676,370.037,110.676z"/>
	<path style="fill:#333333;" d="M419.98,80.676h-18.523l10.5-20.628c0.947-1.86,0.859-4.079-0.232-5.858s-3.028-2.864-5.115-2.864
		H279.37c-2.087,0-4.024,1.085-5.115,2.864s-1.179,3.998-0.232,5.858l10.5,20.628H226.52h-85.063l10.5-20.628
		c0.947-1.86,0.859-4.079-0.232-5.858s-3.028-2.864-5.115-2.864H19.37c-2.087,0-4.024,1.085-5.115,2.864s-1.179,3.998-0.232,5.858
		l10.5,20.628H6c-3.313,0-6,2.686-6,6v62.99c0,3.314,2.687,6,6,6h13.137l13.124,213.358c0.195,3.165,2.818,5.632,5.989,5.632h33
		c3.313,0,6-2.686,6-6v-212.99h35.865l22.203,22.203c1.171,1.172,2.707,1.757,4.243,1.757s3.071-0.586,4.243-1.757l22.205-22.203
		h85.537l42.203,42.203c1.171,1.172,2.707,1.757,4.243,1.757s3.071-0.586,4.243-1.757l42.203-42.203h4.304v212.99
		c0,3.314,2.686,6,6,6h32.99c3.171,0,5.794-2.467,5.989-5.632l13.124-213.358h13.137c3.313,0,6-2.686,6-6v-62.99
		C425.98,83.362,423.293,80.676,419.98,80.676z M289.157,63.326h107.667l-8.832,17.35h-90.003L289.157,63.326z M29.157,63.326
		h107.667l-8.832,17.35H37.988L29.157,63.326z M65.25,362.656H43.892L31.16,155.666h34.09V362.656z M12,143.666v-50.99h38.125
		l50.99,50.99H12z M139.56,165.141L67.095,92.676h144.938L139.56,165.141z M297.99,185.141l-29.475-29.475h58.95L297.99,185.141z
		 M382.088,362.656H360.74v-206.99h34.08L382.088,362.656z M413.98,143.666H178.009l50.996-50.99H413.98V143.666z"/>
</g>
<g>
</g>
<g>
</g>
<g>
</g>
<g>
</g>
<g>
</g>
<g>
</g>
<g>
</g>
<g>
</g>
<g>
</g>
<g>
</g>
<g>
</g>
<g>
</g>
<g>
</g>
<g>
</g>
<g>
</g>
</svg>
